<svg xmlns="http://www.w3.org/2000/svg" id="noun_Cupcake_1409548" width="39.898" height="60.816" viewBox="0 0 39.898 60.816">
    <defs>
        <style>
            .cls-1{fill:#e82147}
        </style>
    </defs>
    <path id="Caminho_57" d="M36.064 32.459a1.239 1.239 0 0 0-2.111 1.3l1.056 1.868a1.183 1.183 0 0 0 1.056.568 1.911 1.911 0 0 0 .65-.162 1.192 1.192 0 0 0 .406-1.705z" class="cls-1" data-name="Caminho 57" transform="translate(-26.646 -16.464)"/>
    <path id="Caminho_58" d="M45.009 48.526a1.183 1.183 0 0 0 1.056.568 1.911 1.911 0 0 0 .65-.162 1.192 1.192 0 0 0 .406-1.705l-1.056-1.868a1.239 1.239 0 1 0-2.111 1.3z" class="cls-1" data-name="Caminho 58" transform="translate(-28.526 -18.889)"/>
    <path id="Caminho_59" d="M56.1 47.176h.325a1.22 1.22 0 0 0 1.218-.893l.568-2.03a1.211 1.211 0 0 0-2.355-.568l-.568 2.03a1.107 1.107 0 0 0 .812 1.461z" class="cls-1" data-name="Caminho 59" transform="translate(-30.681 -18.514)"/>
    <path id="Caminho_60" d="M48.009 35.526a1.183 1.183 0 0 0 1.056.568 1.911 1.911 0 0 0 .65-.162 1.192 1.192 0 0 0 .406-1.705l-1.056-1.868a1.239 1.239 0 1 0-2.111 1.3z" class="cls-1" data-name="Caminho 60" transform="translate(-29.09 -16.445)"/>
    <path id="Caminho_61" d="M34.546 47.383l.568-2.03a1.211 1.211 0 1 0-2.355-.568l-.568 2.03a1.21 1.21 0 0 0 .893 1.462h.325a1.3 1.3 0 0 0 1.137-.894z" class="cls-1" data-name="Caminho 61" transform="translate(-26.346 -18.721)"/>
    <path id="Caminho_62" d="M61.1 36.176h.325a1.22 1.22 0 0 0 1.218-.893l.568-2.03a1.211 1.211 0 0 0-2.355-.568l-.568 2.03a1.107 1.107 0 0 0 .812 1.461z" class="cls-1" data-name="Caminho 62" transform="translate(-31.621 -16.446)"/>
    <path id="Caminho_63" d="M66.009 47.526a1.183 1.183 0 0 0 1.056.568 1.911 1.911 0 0 0 .65-.162 1.192 1.192 0 0 0 .406-1.705l-1.056-1.868a1.239 1.239 0 1 0-2.111 1.3z" class="cls-1" data-name="Caminho 63" transform="translate(-32.475 -18.701)"/>
    <path id="Caminho_64" d="M50.1 25.176h.325a1.22 1.22 0 0 0 1.218-.893l.568-2.03a1.211 1.211 0 1 0-2.355-.568l-.568 2.03a1.107 1.107 0 0 0 .812 1.461z" class="cls-1" data-name="Caminho 64" transform="translate(-29.553 -14.377)"/>
    <path id="Caminho_65" d="M63.568 43.836a6.36 6.36 0 0 0 1.218-3.654 6.1 6.1 0 0 0-4.628-5.927 6.255 6.255 0 0 0 1.38-3.816 6.134 6.134 0 0 0-6.09-6.09h-2.11a6.509 6.509 0 0 0 .893-3.248v-6.739a1.644 1.644 0 0 0-.325-1.137 1.293 1.293 0 0 0-2.111.65 2.98 2.98 0 0 1-3.085 2.355H41.4a5.116 5.116 0 0 0-5.034 5.278v.812a4.489 4.489 0 0 0 .568 2.03H35.15a6.1 6.1 0 0 0-6.09 6.09 6.167 6.167 0 0 0 1.218 3.654 6.185 6.185 0 0 0-3.492 1.706A6.084 6.084 0 0 0 25 40.1a6.36 6.36 0 0 0 1.218 3.654 1.163 1.163 0 0 0-.893.406 1.067 1.067 0 0 0-.244.974l4.872 27.607a1.163 1.163 0 0 0 1.218.974h27.607A1.224 1.224 0 0 0 60 72.742l4.872-27.607a1.067 1.067 0 0 0-.244-.974 1.632 1.632 0 0 0-1.06-.325zm-36.132-3.654a3.91 3.91 0 0 1 1.056-2.6 3.43 3.43 0 0 1 2.6-1.056h4.06a1.218 1.218 0 1 0 0-2.436 3.639 3.639 0 0 1-3.652-3.652 3.911 3.911 0 0 1 1.056-2.6 3.43 3.43 0 0 1 2.6-1.056H41.4a1.249 1.249 0 0 0 1.218-1.218 1.2 1.2 0 0 0-1.218-1.215 2.6 2.6 0 0 1-2.6-2.03v-.812a2.678 2.678 0 0 1 2.6-2.842h7.308a6.46 6.46 0 0 0 3.085-.812V21.1c0 1.462-1.056 3.248-2.273 3.248a1.218 1.218 0 0 0 0 2.436h5.927a3.654 3.654 0 1 1 0 7.308 1.218 1.218 0 0 0 0 2.436H58.7a3.654 3.654 0 0 1 0 7.308H31.09a3.639 3.639 0 0 1-3.654-3.654zm23.547 6.09v25.171h-2.436V46.272zm-9.744 0v25.171H38.8V46.272zm-13.56 0h3.085l2.192 25.171h-.893zm7.795 25.171l-2.192-25.171h3.085v25.171zm8.2 0V46.272h2.436v25.171zm9.744 0V46.272h3.167l-2.192 25.171zm4.222 0h-.893l2.193-25.171h3.085z" class="cls-1" data-name="Caminho 65" transform="translate(-25 -12.9)"/>
</svg>
